<?xml version="1.0" encoding="utf-8"?><svg xmlns="http://www.w3.org/2000/svg"><symbol viewBox="0 0 24 24" id="new"><path d="M19,13 L19,20 C19,20.5522847 18.5522847,21 18,21 L4,21 C3.44771525,21 3,20.5522847 3,20 L3,4 C3,3.44771525 3.44771525,3 4,3 L13,3"/><path d="M21.2892136 2.03921356L21.9607864 2.71078644C22.741835 3.49183502 22.741835 4.75816498 21.9607864 5.53921356L12 15.5 8.5 15.5 8.5 12 18.4607864 2.03921356C19.241835 1.25816498 20.508165 1.25816498 21.2892136 2.03921356zM17.25 3.25L20.75 6.75"/></symbol><symbol viewBox="0 0 24 24" id="book-opened"><path d="M12 6s-2-2-4-2-5 2-5 2v14s3-2 5-2 4 2 4 2c1.333-1.333 2.667-2 4-2 1.333 0 3 .667 5 2V6c-2-1.333-3.667-2-5-2-1.333 0-2.667.667-4 2z"/><path stroke-linecap="round" d="M12 6v14"/></symbol><symbol viewBox="0 0 24 24" id="calendar"><rect width="18" height="16" x="3" y="5"/><path d="M21 10L3 10M8 7L8 3M16 7L16 3"/></symbol><symbol viewBox="0 0 24 24" id="home-alt"><path d="M3 10.182V22h18V10.182L12 2z"/><rect width="6" height="8" x="9" y="14"/></symbol></svg>